<?xml version="1.0" standalone="no"?>
<!DOCTYPE svg PUBLIC "-//W3C//DTD SVG 20010904//EN"
 "http://www.w3.org/TR/2001/REC-SVG-20010904/DTD/svg10.dtd">
<svg version="1.0" xmlns="http://www.w3.org/2000/svg"
 width="512.000000pt" height="512.000000pt" viewBox="0 0 512.000000 512.000000"
 preserveAspectRatio="xMidYMid meet">
<g transform="translate(0.000000,512.000000) scale(0.100000,-0.100000)"
fill="#000000" stroke="none" stroke-width="100">
<path class="menulogo" d="M2500 4383 c-36 -33 -42 -78 -16 -117 19 -31 24 -32 196 -46 282 -23
513 -98 747 -241 621 -380 923 -1133 738 -1842 -105 -405 -376 -769 -738 -994
-234 -144 -496 -226 -775 -242 -126 -8 -135 -10 -160 -34 -50 -50 -23 -136 48
-152 40 -9 269 13 384 36 689 139 1241 663 1420 1349 76 289 75 631 -1 925
-80 307 -235 583 -457 813 -315 326 -710 517 -1165 562 -163 16 -186 14 -221
-17z"/>
<path class="menulogo" d="M2145 4358 c-32 -19 -44 -40 -45 -81 0 -49 38 -87 87 -87 46 0 93 46
93 90 0 64 -79 110 -135 78z"/>
<path class="menulogo" d="M1804 4250 c-47 -19 -68 -85 -43 -132 29 -55 125 -53 154 3 28 53 15
98 -35 124 -32 17 -45 18 -76 5z"/>
<path class="menulogo" d="M1459 4041 c-20 -20 -29 -39 -29 -61 0 -40 47 -90 85 -90 57 0 94 36
95 93 0 82 -91 117 -151 58z"/>
<path class="menulogo" d="M1214 3820 c-52 -21 -70 -96 -34 -142 24 -32 65 -40 107 -23 71 30
73 124 3 160 -32 17 -45 18 -76 5z"/>
<path class="menulogo" d="M969 3501 c-20 -20 -29 -39 -29 -61 0 -45 47 -90 95 -90 82 0 117
101 54 154 -41 35 -83 34 -120 -3z"/>
<path class="menulogo" d="M816 3159 c-30 -35 -32 -58 -11 -100 28 -53 87 -63 134 -23 65 54 28
154 -58 154 -32 0 -44 -6 -65 -31z"/>
<path class="menulogo" d="M2675 2670 l-320 -319 -121 119 c-95 94 -126 120 -148 120 -72 0
-118 -62 -92 -123 8 -18 83 -101 168 -184 146 -145 157 -153 194 -153 38 0 48
9 401 363 l363 362 0 43 c0 57 -33 92 -87 92 -36 0 -51 -14 -358 -320z"/>
<path class="menulogo" d="M745 2805 c-38 -37 -35 -95 6 -129 17 -14 39 -26 49 -26 51 0 100 49
100 99 0 11 -12 33 -26 50 -34 41 -92 44 -129 6z"/>
<path class="menulogo" d="M780 2463 c-58 -21 -79 -96 -40 -145 49 -63 160 -22 160 58 0 31 -30
72 -61 83 -35 12 -37 12 -59 4z"/>
<path class="menulogo" d="M839 2095 c-54 -29 -60 -107 -12 -145 92 -72 198 53 112 133 -32 30
-61 33 -100 12z"/>
<path class="menulogo" d="M977 1750 c-34 -27 -43 -70 -22 -110 34 -67 125 -66 158 2 16 33 17
40 3 71 -24 59 -89 76 -139 37z"/>
<path class="menulogo" d="M1213 1465 c-55 -24 -71 -90 -33 -138 52 -66 160 -27 160 58 0 39
-18 65 -55 81 -40 16 -32 17 -72 -1z"/>
<path class="menulogo" d="M1459 1201 c-37 -37 -38 -79 -3 -120 21 -25 33 -31 65 -31 86 0 123
100 58 154 -41 35 -83 34 -120 -3z"/>
<path class="menulogo" d="M1800 1032 c-68 -34 -65 -128 5 -158 108 -45 179 107 75 161 -36 19
-37 19 -80 -3z"/>
<path class="menulogo" d="M2144 918 c-25 -12 -44 -48 -44 -84 0 -37 51 -84 90 -84 42 0 90 47
90 88 0 45 -44 92 -83 91 -18 0 -42 -5 -53 -11z"/>
</g>
</svg>
